<mxfile host="Electron" modified="2023-04-05T22:24:56.349Z" agent="Mozilla/5.0 (Windows NT 10.0; Win64; x64) AppleWebKit/537.36 (KHTML, like Gecko) draw.io/21.1.2 Chrome/106.0.5249.199 Electron/21.4.3 Safari/537.36" etag="ohS9VJiG_idmBBD6eySU" version="21.1.2" type="device">
  <diagram name="Page-1" id="Axyi0ZO_WcJgHzGyMsrf">
    <mxGraphModel dx="6758" dy="1187" grid="1" gridSize="10" guides="1" tooltips="1" connect="1" arrows="1" fold="1" page="1" pageScale="1" pageWidth="1100" pageHeight="850" math="0" shadow="0">
      <root>
        <mxCell id="0" />
        <mxCell id="1" parent="0" />
        <mxCell id="D8F80IK6GejHwHV3GmlB-4" value="" style="rounded=1;whiteSpace=wrap;html=1;fillColor=#fff2cc;strokeColor=#d6b656;strokeWidth=3;" parent="1" vertex="1">
          <mxGeometry x="-5480" y="40" width="1070" height="800" as="geometry" />
        </mxCell>
        <mxCell id="BPUPT0OHVQ3fbzKF05TD-2" value="" style="rounded=1;whiteSpace=wrap;html=1;fillColor=#ffe6cc;strokeColor=#d79b00;fillStyle=auto;" parent="1" vertex="1">
          <mxGeometry x="-5360" y="340" width="630" height="490" as="geometry" />
        </mxCell>
        <mxCell id="ZdHZs-xIcd3arrK55Dnx-14" value="MNG (Mv3)" style="text;html=1;align=center;verticalAlign=middle;resizable=0;points=[];autosize=1;strokeColor=none;fillColor=none;fontSize=34;fontColor=default;fontStyle=0;" parent="1" vertex="1">
          <mxGeometry x="-5130" y="360" width="200" height="50" as="geometry" />
        </mxCell>
        <mxCell id="YyOdazKIApJBeC4s2K_R-1" value="HOST" style="text;html=1;strokeColor=none;fillColor=none;align=center;verticalAlign=middle;whiteSpace=wrap;rounded=0;fontSize=40;" parent="1" vertex="1">
          <mxGeometry x="-5380" y="80" width="60" height="30" as="geometry" />
        </mxCell>
        <mxCell id="jPhf9QpesXwXawj8Bi22-1" value="" style="rounded=1;whiteSpace=wrap;html=1;fillColor=#f5f5f5;fontColor=#333333;strokeColor=#666666;" parent="1" vertex="1">
          <mxGeometry x="-5360" y="540" width="110" height="230" as="geometry" />
        </mxCell>
        <mxCell id="jPhf9QpesXwXawj8Bi22-2" value="&lt;b&gt;&lt;font style=&quot;font-size: 12px;&quot;&gt;brlan0&lt;/font&gt;&lt;/b&gt;&lt;br&gt;&lt;div style=&quot;&quot;&gt;&lt;span style=&quot;background-color: initial;&quot;&gt;&lt;font style=&quot;font-size: 10px;&quot;&gt;192.168.1.1&lt;/font&gt;&lt;/span&gt;&lt;/div&gt;" style="text;strokeColor=none;align=center;fillColor=none;html=1;verticalAlign=top;whiteSpace=wrap;rounded=1;" parent="1" vertex="1">
          <mxGeometry x="-5350" y="540" width="110" height="70" as="geometry" />
        </mxCell>
        <mxCell id="jPhf9QpesXwXawj8Bi22-3" value="&lt;b&gt;eth1&lt;/b&gt;" style="rounded=1;whiteSpace=wrap;html=1;fillColor=#f5f5f5;fontColor=#333333;strokeColor=#666666;" parent="1" vertex="1">
          <mxGeometry x="-5360" y="625" width="40" height="30" as="geometry" />
        </mxCell>
        <mxCell id="jPhf9QpesXwXawj8Bi22-4" value="eth0" style="rounded=1;whiteSpace=wrap;html=1;fillColor=#f5f5f5;fontColor=#333333;strokeColor=#666666;" parent="1" vertex="1">
          <mxGeometry x="-4760" y="470" width="30" height="200" as="geometry" />
        </mxCell>
        <mxCell id="jPhf9QpesXwXawj8Bi22-5" value="&lt;b&gt;erouter0&lt;br&gt;&lt;/b&gt;" style="rounded=1;whiteSpace=wrap;html=1;align=center;fillColor=#f5f5f5;fontColor=#333333;strokeColor=#666666;" parent="1" vertex="1">
          <mxGeometry x="-4880" y="470" width="120" height="80" as="geometry" />
        </mxCell>
        <mxCell id="jPhf9QpesXwXawj8Bi22-6" value="wan&lt;br&gt;bridge" style="shape=trapezoid;perimeter=trapezoidPerimeter;whiteSpace=wrap;html=1;fixedSize=1;fontSize=14;" parent="1" vertex="1">
          <mxGeometry x="-4690" y="340" width="80" height="50" as="geometry" />
        </mxCell>
        <mxCell id="jPhf9QpesXwXawj8Bi22-7" value="" style="rounded=1;whiteSpace=wrap;html=1;fillColor=#d5e8d4;strokeColor=#82b366;strokeWidth=3;" parent="1" vertex="1">
          <mxGeometry x="-4680" y="530" width="230" height="270" as="geometry" />
        </mxCell>
        <mxCell id="jPhf9QpesXwXawj8Bi22-11" value="eth0" style="rounded=1;whiteSpace=wrap;html=1;fillColor=#f5f5f5;fontColor=#333333;strokeColor=#666666;" parent="1" vertex="1">
          <mxGeometry x="-4680" y="600" width="100" height="45" as="geometry" />
        </mxCell>
        <mxCell id="jPhf9QpesXwXawj8Bi22-14" value="LXC-AXIROS" style="rounded=1;whiteSpace=wrap;html=1;fillColor=#f5f5f5;fontColor=#333333;strokeColor=#666666;fontSize=15;" parent="1" vertex="1">
          <mxGeometry x="-4642.5" y="680" width="165" height="74.29" as="geometry" />
        </mxCell>
        <mxCell id="VWxw-bLilHhJzbKpekQc-1" value="&lt;b&gt;eth2&lt;/b&gt;" style="rounded=1;whiteSpace=wrap;html=1;fillColor=#f5f5f5;fontColor=#333333;strokeColor=#666666;" parent="1" vertex="1">
          <mxGeometry x="-5360" y="655" width="40" height="30" as="geometry" />
        </mxCell>
        <mxCell id="VWxw-bLilHhJzbKpekQc-2" value="&lt;b&gt;eth2&lt;/b&gt;" style="rounded=1;whiteSpace=wrap;html=1;fillColor=#f5f5f5;fontColor=#333333;strokeColor=#666666;" parent="1" vertex="1">
          <mxGeometry x="-5360" y="685.71" width="40" height="30" as="geometry" />
        </mxCell>
        <mxCell id="VWxw-bLilHhJzbKpekQc-3" value="&lt;b&gt;eth2&lt;/b&gt;" style="rounded=1;whiteSpace=wrap;html=1;fillColor=#f5f5f5;fontColor=#333333;strokeColor=#666666;" parent="1" vertex="1">
          <mxGeometry x="-5360" y="715.71" width="40" height="30" as="geometry" />
        </mxCell>
        <mxCell id="VWxw-bLilHhJzbKpekQc-5" value="" style="endArrow=none;html=1;rounded=0;" parent="1" source="VEIhGE11iWbtG9OPqQKF-5" target="jPhf9QpesXwXawj8Bi22-3" edge="1">
          <mxGeometry width="50" height="50" relative="1" as="geometry">
            <mxPoint x="-5419.615384615385" y="525" as="sourcePoint" />
            <mxPoint x="-4620" y="480" as="targetPoint" />
            <Array as="points">
              <mxPoint x="-5405" y="530" />
            </Array>
          </mxGeometry>
        </mxCell>
        <mxCell id="VWxw-bLilHhJzbKpekQc-7" value="" style="endArrow=none;html=1;rounded=0;" parent="1" source="jPhf9QpesXwXawj8Bi22-6" target="jPhf9QpesXwXawj8Bi22-4" edge="1">
          <mxGeometry width="50" height="50" relative="1" as="geometry">
            <mxPoint x="-5409.615384615385" y="535" as="sourcePoint" />
            <mxPoint x="-5340.384615384615" y="635" as="targetPoint" />
          </mxGeometry>
        </mxCell>
        <mxCell id="VEIhGE11iWbtG9OPqQKF-1" value="" style="rounded=1;whiteSpace=wrap;html=1;fillColor=#dae8fc;strokeColor=#6c8ebf;strokeWidth=3;" vertex="1" parent="1">
          <mxGeometry x="-4960" y="50" width="280" height="260" as="geometry" />
        </mxCell>
        <mxCell id="VEIhGE11iWbtG9OPqQKF-2" value="eth0" style="rounded=1;whiteSpace=wrap;html=1;fillColor=#dae8fc;strokeColor=#6c8ebf;" vertex="1" parent="1">
          <mxGeometry x="-4800" y="210" width="110" height="75" as="geometry" />
        </mxCell>
        <mxCell id="VEIhGE11iWbtG9OPqQKF-5" value="lan&lt;br&gt;bridge" style="shape=trapezoid;perimeter=trapezoidPerimeter;whiteSpace=wrap;html=1;fixedSize=1;fontSize=14;" vertex="1" parent="1">
          <mxGeometry x="-5460" y="260" width="90" height="50" as="geometry" />
        </mxCell>
        <mxCell id="VEIhGE11iWbtG9OPqQKF-6" value="" style="endArrow=none;html=1;rounded=0;" edge="1" parent="1" source="jPhf9QpesXwXawj8Bi22-6" target="VEIhGE11iWbtG9OPqQKF-2">
          <mxGeometry width="50" height="50" relative="1" as="geometry">
            <mxPoint x="-4943.846153846154" y="305.3846153846157" as="sourcePoint" />
            <mxPoint x="-5040" y="516" as="targetPoint" />
          </mxGeometry>
        </mxCell>
        <mxCell id="VEIhGE11iWbtG9OPqQKF-7" value="BNG" style="text;html=1;align=center;verticalAlign=middle;resizable=0;points=[];autosize=1;strokeColor=none;fillColor=none;fontSize=34;fontColor=default;fontStyle=0;" vertex="1" parent="1">
          <mxGeometry x="-4880" y="70" width="100" height="50" as="geometry" />
        </mxCell>
        <mxCell id="VEIhGE11iWbtG9OPqQKF-8" value="ACS" style="text;html=1;align=center;verticalAlign=middle;resizable=0;points=[];autosize=1;strokeColor=none;fillColor=none;fontSize=34;fontColor=default;fontStyle=0;" vertex="1" parent="1">
          <mxGeometry x="-4605" y="540" width="90" height="50" as="geometry" />
        </mxCell>
      </root>
    </mxGraphModel>
  </diagram>
</mxfile>
